<svg width="30" height="40" fill="none" xmlns="http://www.w3.org/2000/svg"><path d="M11.03 31.282h-.044c-.374.544-.934.816-1.68.816-.7 0-1.244-.24-1.635-.718-.387-.479-.581-1.159-.581-2.041 0-.882.195-1.567.586-2.056.39-.488.934-.732 1.63-.732.727 0 1.283.264 1.67.79h.064l-.034-.385-.02-.376v-2.178h.81V32h-.658l-.108-.718zm-1.62.137c.553 0 .953-.15 1.2-.45.251-.302.376-.789.376-1.46v-.17c0-.759-.127-1.299-.38-1.621-.251-.326-.653-.488-1.207-.488-.475 0-.84.185-1.093.556-.251.368-.376.889-.376 1.563 0 .683.125 1.2.376 1.547.25.349.618.523 1.103.523zm8.73-2.1c0 .873-.22 1.555-.66 2.046-.439.489-1.046.733-1.82.733-.48 0-.904-.113-1.275-.337a2.223 2.223 0 01-.86-.967c-.201-.42-.302-.912-.302-1.475 0-.872.218-1.55.654-2.036.436-.488 1.042-.732 1.816-.732.75 0 1.343.249 1.783.747.442.498.664 1.172.664 2.021zm-4.078 0c0 .684.137 1.205.41 1.563.274.358.676.537 1.207.537.53 0 .932-.178 1.206-.532.276-.358.415-.88.415-1.568 0-.68-.139-1.196-.415-1.547-.274-.355-.679-.533-1.216-.533-.53 0-.931.174-1.201.523-.27.348-.405.867-.405 1.557zm7.642 2.779c-.775 0-1.375-.238-1.802-.713-.423-.479-.634-1.154-.634-2.027 0-.895.214-1.587.644-2.075.433-.488 1.048-.732 1.846-.732.257 0 .514.027.771.083.258.055.46.12.606.195l-.25.689a3.643 3.643 0 00-.585-.176 2.535 2.535 0 00-.562-.073c-1.087 0-1.63.693-1.63 2.08 0 .657.131 1.162.395 1.513.267.352.66.528 1.182.528.446 0 .903-.096 1.372-.288v.717c-.358.186-.81.279-1.353.279z" fill="#023A4D"/><path d="M29 1v38H1V8.414L8.414 1H29z" stroke="#023A4D" stroke-width="2"/><path stroke="#023A4D" d="M5 18.5h20m-20-4h20m-20-4h20"/></svg>