<svg width="30" height="40" fill="none" xmlns="http://www.w3.org/2000/svg"><path d="M10.45 32.098c-.35 0-.668-.064-.958-.19a1.818 1.818 0 01-.722-.597h-.06c.04.313.06.61.06.89v2.201h-.811v-7.754h.66l.111.733h.04c.208-.293.45-.505.727-.635.277-.13.594-.195.952-.195.71 0 1.257.242 1.64.727.388.485.582 1.166.582 2.041 0 .88-.197 1.563-.59 2.051-.391.485-.935.728-1.632.728zm-.118-4.859c-.547 0-.942.152-1.186.454-.245.303-.37.785-.376 1.446v.18c0 .752.125 1.291.376 1.617.25.322.652.483 1.206.483.462 0 .823-.187 1.083-.562.264-.374.396-.89.396-1.547 0-.668-.132-1.179-.396-1.534-.26-.358-.628-.537-1.103-.537zm6.25 4.859c-.348 0-.667-.064-.957-.19a1.819 1.819 0 01-.723-.597h-.058c.039.313.058.61.058.89v2.201h-.81v-7.754h.659l.112.733h.04c.208-.293.45-.505.727-.635.277-.13.594-.195.952-.195.71 0 1.256.242 1.64.727.388.485.582 1.166.582 2.041 0 .88-.197 1.563-.591 2.051-.39.485-.934.728-1.631.728zm-.117-4.859c-.547 0-.942.152-1.187.454-.244.303-.37.785-.376 1.446v.18c0 .752.126 1.291.376 1.617.251.322.653.483 1.206.483.463 0 .824-.187 1.084-.562.264-.374.396-.89.396-1.547 0-.668-.132-1.179-.396-1.534-.26-.358-.628-.537-1.103-.537zm5.488 4.19a2.795 2.795 0 00.733-.098v.62a1.436 1.436 0 01-.391.103c-.17.029-.322.044-.46.044-1.034 0-1.552-.546-1.552-1.636v-3.184h-.766v-.39l.766-.337.342-1.143h.469v1.24h1.552v.63h-1.552v3.15c0 .322.076.57.23.742.152.172.362.259.63.259z" fill="#023A4D"/><path d="M29 1v38H1V8.414L8.414 1H29z" stroke="#023A4D" stroke-width="2"/><path stroke="#023A4D" d="M5 18.5h20m-20-4h20m-20-4h20"/></svg>