<svg width="30" height="40" fill="none" xmlns="http://www.w3.org/2000/svg"><path d="M11.435 26.55c.238 0 .451.02.64.06l-.112.751a2.763 2.763 0 00-.586-.073c-.433 0-.804.176-1.113.527-.306.352-.46.79-.46 1.314V32h-.81v-5.352h.67l.092.992h.039c.198-.349.438-.617.718-.806.28-.189.587-.283.922-.283zM16.367 32l-.16-.762h-.04c-.267.336-.534.563-.8.684-.265.117-.595.176-.992.176-.53 0-.947-.137-1.25-.41-.3-.274-.45-.663-.45-1.168 0-1.08.865-1.647 2.594-1.699l.908-.029v-.332c0-.42-.091-.73-.274-.928-.179-.202-.467-.302-.864-.302-.446 0-.95.136-1.514.41l-.249-.62a3.82 3.82 0 01.865-.337c.315-.082.631-.122.947-.122.638 0 1.11.141 1.416.424.31.284.464.738.464 1.363V32h-.6zm-1.83-.571c.504 0 .9-.139 1.186-.415.29-.277.434-.664.434-1.162v-.484l-.81.034c-.645.023-1.11.124-1.397.303-.283.176-.425.45-.425.825 0 .293.088.516.264.67.18.152.428.229.747.229zm6.547-4.878c.238 0 .45.02.64.058l-.113.752a2.762 2.762 0 00-.586-.073c-.433 0-.804.176-1.113.527-.306.352-.459.79-.459 1.314V32h-.81v-5.352h.668l.093.992h.04c.198-.349.437-.617.717-.806.28-.189.588-.283.923-.283z" fill="#023A4D"/><path d="M29 1v38H1V8.414L8.414 1H29z" stroke="#023A4D" stroke-width="2"/><path stroke="#023A4D" d="M5 18.5h20m-20-4h20m-20-4h20"/></svg>