<svg width="30" height="40" fill="none" xmlns="http://www.w3.org/2000/svg"><path d="M12.612 32H8.73v-.552l2.92-4.17H8.911v-.63h3.628v.63L9.66 31.37h2.953V32zm2.066 0h-.81v-5.352h.81V32zm-.88-6.802c0-.185.046-.32.137-.405a.473.473 0 01.342-.132c.13 0 .243.044.337.132.095.088.142.223.142.405 0 .183-.047.32-.142.41a.478.478 0 01-.337.132.473.473 0 01-.341-.132c-.092-.09-.137-.227-.137-.41zm5.089 6.9a2.37 2.37 0 01-.957-.19 1.818 1.818 0 01-.723-.597h-.059c.04.313.059.61.059.89v2.201h-.81v-7.754h.659l.112.733h.039a1.87 1.87 0 01.728-.635c.276-.13.594-.195.952-.195.71 0 1.256.242 1.64.727.388.485.581 1.166.581 2.041 0 .88-.197 1.563-.59 2.051-.391.485-.935.728-1.631.728zm-.117-4.859c-.547 0-.943.152-1.187.454-.244.303-.37.785-.376 1.446v.18c0 .752.125 1.291.376 1.617.25.322.653.483 1.206.483.462 0 .824-.187 1.084-.562.264-.374.396-.89.396-1.547 0-.668-.132-1.179-.396-1.534-.26-.358-.628-.537-1.104-.537z" fill="#023A4D"/><path d="M29 1v38H1V8.414L8.414 1H29z" stroke="#023A4D" stroke-width="2"/><path stroke="#023A4D" d="M5 18.5h20m-20-4h20m-20-4h20"/></svg>