<svg width="30" height="40" fill="none" xmlns="http://www.w3.org/2000/svg"><path d="M10.874 29.26l-1.86-2.612h.923l1.41 2.051 1.407-2.05h.913l-1.86 2.612L13.765 32h-.918l-1.5-2.168L9.835 32h-.918l1.958-2.74zM15.64 32h-.81v-7.598h.81V32zm5.17-1.46c0 .498-.185.882-.556 1.152-.371.27-.892.406-1.563.406-.71 0-1.263-.113-1.66-.337v-.752c.257.13.533.232.825.307.297.075.581.113.855.113.423 0 .749-.067.977-.2a.676.676 0 00.341-.62c0-.209-.09-.386-.273-.533-.18-.15-.53-.325-1.055-.527-.498-.186-.853-.347-1.064-.484a1.505 1.505 0 01-.469-.473 1.245 1.245 0 01-.151-.63c0-.436.177-.78.532-1.03.355-.254.841-.381 1.46-.381.576 0 1.14.117 1.69.351l-.289.66c-.537-.222-1.024-.332-1.46-.332-.384 0-.674.06-.869.18-.195.12-.293.287-.293.498a.62.62 0 00.107.366c.075.101.194.197.357.288.163.092.475.223.938.396.634.231 1.062.464 1.284.698.224.235.337.53.337.884z" fill="#023A4D"/><path d="M29 1v38H1V8.414L8.414 1H29z" stroke="#023A4D" stroke-width="2"/><path stroke="#023A4D" d="M5 18.5h20m-20-4h20m-20-4h20"/></svg>