<svg width="30" height="40" fill="none" xmlns="http://www.w3.org/2000/svg"><path d="M9.473 32.098a2.37 2.37 0 01-.957-.19 1.818 1.818 0 01-.723-.597h-.059c.04.313.059.61.059.89v2.201h-.81v-7.754h.659l.112.733h.039a1.87 1.87 0 01.728-.635c.276-.13.594-.195.952-.195.71 0 1.256.242 1.64.727.388.485.581 1.166.581 2.041 0 .88-.197 1.563-.59 2.051-.391.485-.935.728-1.631.728zm-.118-4.859c-.546 0-.942.152-1.186.454-.244.303-.37.785-.376 1.446v.18c0 .752.125 1.291.376 1.617.25.322.653.483 1.206.483.462 0 .824-.187 1.084-.562.264-.374.396-.89.396-1.547 0-.668-.132-1.179-.396-1.534-.26-.358-.628-.537-1.104-.537zM16.777 32v-3.462c0-.436-.099-.762-.297-.977-.2-.214-.51-.322-.933-.322-.56 0-.97.152-1.23.454-.261.303-.391.803-.391 1.5V32h-.81v-5.352h.658l.132.733h.04c.165-.264.398-.467.698-.61.299-.147.633-.22 1-.22.645 0 1.13.156 1.456.469.325.309.488.805.488 1.489V32h-.81zm6.86-5.352v.513l-.99.117a1.74 1.74 0 01.351 1.07c0 .524-.179.942-.537 1.255-.358.312-.85.468-1.475.468-.16 0-.309-.013-.449-.039-.345.183-.517.412-.517.689 0 .146.06.255.18.327.12.068.327.102.62.102h.948c.579 0 1.023.123 1.333.367.312.244.468.599.468 1.064 0 .592-.237 1.043-.713 1.353-.475.312-1.168.468-2.08.468-.7 0-1.24-.13-1.62-.39-.378-.26-.567-.629-.567-1.104 0-.325.104-.607.312-.845.209-.237.502-.398.88-.483a.866.866 0 01-.347-.288.772.772 0 01-.137-.454c0-.195.052-.366.156-.513.104-.146.269-.288.493-.425a1.458 1.458 0 01-.678-.58 1.72 1.72 0 01-.26-.938c0-.586.177-1.037.528-1.353.352-.319.85-.478 1.494-.478.28 0 .532.032.757.097h1.85zm-4.267 6.25c0 .29.122.51.366.66.244.15.594.224 1.05.224.68 0 1.183-.102 1.509-.307.329-.202.493-.477.493-.826 0-.29-.09-.491-.268-.605-.18-.11-.516-.166-1.011-.166h-.972c-.368 0-.654.088-.86.264-.204.175-.307.428-.307.756zm.44-4.536c0 .375.105.658.317.85.212.192.506.288.884.288.79 0 1.186-.384 1.186-1.152 0-.804-.4-1.206-1.2-1.206-.382 0-.675.102-.88.307-.205.205-.307.51-.307.913z" fill="#023A4D"/><path d="M29 1v38H1V8.414L8.414 1H29z" stroke="#023A4D" stroke-width="2"/><path stroke="#023A4D" d="M5 18.5h20m-20-4h20m-20-4h20"/></svg>