<svg width="24" height="24" fill="none" xmlns="http://www.w3.org/2000/svg"><path fill-rule="evenodd" clip-rule="evenodd" d="M7.5 0h9A7.5 7.5 0 0124 7.5v9a7.5 7.5 0 01-7.5 7.5h-9A7.5 7.5 0 010 16.5v-9A7.5 7.5 0 017.5 0zm9 21.75a5.256 5.256 0 005.25-5.25v-9a5.256 5.256 0 00-5.25-5.25h-9A5.256 5.256 0 002.25 7.5v9a5.256 5.256 0 005.25 5.25h9z" fill="#008687"/><path fill-rule="evenodd" clip-rule="evenodd" d="M6 12a6 6 0 1112 0 6 6 0 01-12 0zm2.25 0A3.755 3.755 0 0012 15.75 3.755 3.755 0 0015.75 12 3.754 3.754 0 0012 8.25 3.754 3.754 0 008.25 12z" fill="#008687"/><circle cx="18.45" cy="5.55" r=".799" fill="#008687"/></svg>