<svg width="30" height="40" fill="none" xmlns="http://www.w3.org/2000/svg"><path d="M10.523 32.098c-.349 0-.668-.064-.958-.19a1.818 1.818 0 01-.722-.597h-.059c.04.313.059.61.059.89v2.201h-.81v-7.754h.658l.113.733h.039c.208-.293.45-.505.727-.635.277-.13.594-.195.953-.195.71 0 1.256.242 1.64.727.387.485.581 1.166.581 2.041 0 .88-.197 1.563-.59 2.051-.391.485-.935.728-1.631.728zm-.118-4.859c-.547 0-.942.152-1.186.454-.244.303-.37.785-.376 1.446v.18c0 .752.125 1.291.376 1.617.25.322.652.483 1.206.483.462 0 .823-.187 1.084-.562.264-.374.395-.89.395-1.547 0-.668-.131-1.179-.395-1.534-.26-.358-.629-.537-1.104-.537zm7.403 4.043h-.044c-.375.544-.935.816-1.68.816-.7 0-1.245-.24-1.636-.718-.387-.479-.58-1.159-.58-2.041 0-.882.194-1.567.585-2.056.39-.488.934-.732 1.631-.732.726 0 1.282.264 1.67.79h.063l-.034-.385-.02-.376v-2.178h.811V32h-.659l-.107-.718zm-1.622.137c.554 0 .954-.15 1.202-.45.25-.302.376-.789.376-1.46v-.17c0-.759-.127-1.299-.381-1.621-.25-.326-.653-.488-1.206-.488-.476 0-.84.185-1.094.556-.25.368-.376.889-.376 1.563 0 .683.125 1.2.376 1.547.25.349.618.523 1.103.523zm6.524-4.14h-1.362V32h-.81v-4.722h-.958v-.366l.957-.293v-.298c0-1.315.575-1.972 1.724-1.972.283 0 .615.057.996.17l-.21.65a2.682 2.682 0 00-.8-.151c-.307 0-.533.102-.68.307-.146.202-.22.527-.22.977v.346h1.363v.63z" fill="#023A4D"/><path d="M29 1v38H1V8.414L8.414 1H29z" stroke="#023A4D" stroke-width="2"/><path stroke="#023A4D" d="M5 18.5h20m-20-4h20m-20-4h20"/></svg>