<svg width="73" height="50" fill="none" xmlns="http://www.w3.org/2000/svg"><g clip-path="url(#clip0_242_192)" fill="#fff"><path d="M20.003 43.348H9.107V6.652h10.896V0H.68v50h19.322v-6.652zM53.417 0v6.652h10.896v36.696H53.417V50h19.322V0H53.417z"/><path d="M15.426 16.594a1.651 1.651 0 010 3.29h-2.179V14.84h3.632v1.17h-2.397v.584h.944zm-.944 1.17v1.023h.944a.513.513 0 000-1.023h-.944zm6.684-1.754H19.35v.657h1.67v1.17h-1.67v.877h1.888v1.17h-3.196V14.84h3.123v1.17zm.871.072c-.073-.95.726-1.389 1.598-1.389 1.09 0 1.67.731 1.67 1.462 0 .366-.145.731-.435.95.508.293.726.659.726 1.243 0 .878-.654 1.608-1.961 1.608-1.09 0-1.743-.584-1.743-1.754h1.162c0 .366.29.658.654.658.871 0 .871-1.17 0-1.17h-.364v-1.023h.364c.653 0 .653-.877 0-.877-.291 0-.436.073-.436.292h-1.235zm3.995 1.243c0-3.509 5.158-3.509 5.158 0s-5.158 3.509-5.158 0zm3.85 0c0-1.827-2.542-1.827-2.542 0 0 1.9 2.542 1.9 2.542 0zm6.319 2.559h-1.307v-3.875h-1.526v3.875h-1.38V14.84h4.213v5.044zm1.744-.001H36.71v-.22l2.252-4.897h.58l2.253 4.897v.22H40.56l-1.308-2.997-1.307 2.997zm7.627-.657H43.61l-.29.657h-1.235v-.219l2.252-4.97h.58l2.253 4.97v.22h-1.235l-.363-.658zm-1.017-2.413l-.581 1.316h1.162l-.581-1.316zm2.179-.803v-1.17h3.778v1.17h-1.235v3.874h-1.308v-3.875h-1.235zm8.572 3.874h-1.38v-2.047H52.4v2.047h-1.307V14.84H52.4v1.827h1.526V14.84h1.38v5.044zm3.995-.658H57.34l-.29.657h-1.235v-.219l2.251-4.97h.581l2.252 4.97v.22h-1.235l-.363-.658zm-.944-2.413l-.581 1.316h1.162l-.581-1.316zM17.388 27.339H16.08v-3.874h-1.525v3.874h-1.308v-5.044h4.14v5.044zm1.162 0v-5.044h2.179c2.397 0 2.397 3.801 0 3.801h-.944v1.316H18.55v-.073zm2.179-3.874h-.944v1.462h.944c.726 0 .726-1.462 0-1.462zm5.158 3.29h-1.961l-.29.658H22.4v-.22l2.252-4.97h.581l2.252 4.97v.22H26.25l-.363-.658zm-1.017-2.486l-.581 1.316h1.162l-.58-1.316zm6.392.438c.436.22.581.585.581 1.024 0 .877-.508 1.608-1.598 1.608h-2.324v-5.044h2.18c.87 0 1.597.658 1.597 1.535 0 .365-.145.731-.436.877zm-2.034-1.242v.804h.8c.508 0 .508-.804 0-.804h-.8zm0 1.9v.877h1.017c.509 0 .509-.877 0-.877h-1.017zm3.197-.511c0-3.508 5.157-3.508 5.157 0 0 3.509-5.157 3.509-5.157 0zm3.85 0c0-1.827-2.543-1.827-2.543 0 0 1.828 2.543 1.828 2.543 0zm5.447-.147c.436.22.581.585.581 1.024 0 .877-.508 1.608-1.598 1.608h-2.324v-5.044h2.179c.872 0 1.598.658 1.598 1.535 0 .365-.218.731-.436.877zm-2.106-1.242v.804h.799c.508 0 .508-.804 0-.804h-.8zm0 1.9v.877h1.017c.508 0 .508-.877 0-.877h-1.017zm6.464 1.39h-1.96l-.291.658h-1.235v-.22l2.252-4.97h.58l2.253 4.97v.22h-1.235l-.364-.658zm-1.017-2.486l-.58 1.316h1.162l-.582-1.316zm-31.38 11.185h-1.09v-1.681h.51l1.743-4.021h.58l1.817 4.02h.508v1.682h-1.09v-.585h-2.978v.585zm.727-1.755h1.453l-.727-1.827-.726 1.827zm3.486-1.389c0-3.51 5.158-3.51 5.158 0 0 3.508-5.157 3.508-5.157 0zm3.85 0c0-1.828-2.542-1.828-2.542 0 0 1.827 2.542 1.827 2.542 0zm6.32 2.558H26.76v-3.874h-1.526v3.874h-1.307v-5.044h4.14v5.044zm.872-2.558c0-3.51 5.157-3.51 5.157 0 0 3.508-5.157 3.508-5.157 0zm3.85 0c0-1.828-2.543-1.828-2.543 0 0 1.827 2.542 1.827 2.542 0zm6.538-2.558h.435v5.117h-1.307v-2.266l-1.017 1.096h-.145l-1.09-1.096v2.266h-1.307v-5.117h.435l2.034 2.193 1.962-2.193zm1.307 2.558c0-3.51 5.157-3.51 5.157 0 0 3.508-5.157 3.508-5.157 0zm3.85 0c0-1.828-2.543-1.828-2.543 0 0 1.827 2.543 1.827 2.543 0zm3.413 2.558H46.59v-5.044h3.123v1.097h-1.816v3.947zm4.868-.658h-1.961l-.29.658h-1.236v-.22l2.252-4.97h.581l2.252 4.97v.22h-1.235l-.363-.658zm-.944-2.412l-.581 1.316H52.4l-.581-1.316z"/></g><defs><clipPath id="clip0_242_192"><path fill="#fff" d="M0 0h72.794v50H0z"/></clipPath></defs></svg>