<svg width="125" height="50" fill="none" xmlns="http://www.w3.org/2000/svg"><path d="M9.729 36.228c0 2.18-1.1 2.941-2.854 2.941H.722v-10.9H6.84c2.166 0 2.681.9 2.681 2.596 0 1.522-.378 2.387-2.303 2.526 2.063.138 2.51 1.142 2.51 2.837zm-6.532-3.737h2.956c.482 0 .688-.277.688-1.038s-.206-1.038-.688-1.038H3.197v2.076zm3.025 4.533c.516 0 .79-.346.79-1.211 0-.9-.309-1.28-.859-1.28H3.197v2.49h3.025zm15.986-3.426c0 4.464-1.788 5.779-5.26 5.779-3.472 0-5.26-1.28-5.26-5.779 0-4.394 1.788-5.57 5.26-5.57 3.472 0 5.26 1.176 5.26 5.57zm-2.647.035c0-2.976-.413-3.287-2.578-3.287-2.166 0-2.579.346-2.579 3.287 0 3.01.413 3.46 2.579 3.46 2.165 0 2.578-.45 2.578-3.46zm8.594-3.149c-.24 2.664-.79 5.675-1.857 8.65h-2.647c1.066-3.217 2.029-6.92 2.166-10.864h7.563v10.865h-2.51v-8.65h-2.715zm18.082 3.114c0 4.464-1.787 5.779-5.26 5.779-3.472 0-5.26-1.28-5.26-5.779 0-4.394 1.788-5.57 5.26-5.57 3.473 0 5.26 1.176 5.26 5.57zm-2.647.035c0-2.976-.412-3.287-2.578-3.287-2.2 0-2.578.346-2.578 3.287 0 3.01.412 3.46 2.578 3.46 2.166-.035 2.578-.45 2.578-3.46zm7.46 5.502h-2.509V28.27h2.51v3.944h4.056V28.27h2.51v10.865h-2.51v-4.568h-4.056v4.568zm11.757 0v-8.65h-3.61V28.27h9.695v2.214h-3.576v8.65h-2.51zM78.552 28.27v2.214h-5.569v1.938h3.988v2.145h-3.988v2.353h5.57v2.215h-8.045V28.27h8.044zm1.96 10.865V28.27h6.016c2.2 0 2.956 1.591 2.956 3.806 0 1.972-.928 3.668-2.956 3.668h-3.541v3.39h-2.475zm5.156-5.433c.653 0 1.1-.45 1.1-1.592 0-1.176-.378-1.66-1.065-1.66H83.02v3.252h2.647zm12.925-4.498h-5.775v3.668h4.056c2.304 0 2.854 1.315 2.854 3.218 0 2.041-.963 3.08-2.682 3.08h-5.362v-10.9h6.875v.934h.034zm-.034 6.851c0-1.315-.481-2.284-1.581-2.284h-4.16v4.43h4.228c1.17 0 1.513-.866 1.513-2.146zm5.26 3.08h-1.1V28.27h7.941v10.865h-1.1v-9.931h-5.741v9.93zm20.489-.935l-.309 3.322h-.929v-2.387h-9.281v2.387h-.963l-.309-3.322h1.581c1.134-2.664 1.684-5.986 1.856-9.93h6.394v9.93h1.96zm-3.06-8.996h-4.262c-.172 3.01-.619 6.263-1.547 8.996h5.844v-8.996h-.035zM3.54 42.56c-.412.209-.927.278-1.546.347-1.1.104-1.272.554-1.41 1.626.241-.38.654-.623 1.376-.623 1.203 0 1.856.554 1.856 2.284 0 1.73-.653 2.215-1.994 2.215C.619 48.409 0 47.75 0 45.813c0-2.837.619-3.356 1.994-3.494.55-.07 1.066-.139 1.547-.346v.588zm-1.718 5.33c1.031 0 1.375-.277 1.375-1.696 0-1.35-.344-1.695-1.238-1.695-1.1 0-1.34.415-1.34 1.695 0 1.177.412 1.696 1.203 1.696zm6.876-1.731H5.535c0 1.453.447 1.765 1.478 1.765.31 0 .894-.104 1.272-.242l.137.519c-.446.138-1.065.242-1.443.242-1.341 0-2.063-.554-2.063-2.353 0-1.73.688-2.319 1.994-2.319 1.237 0 1.788.485 1.788 2.388zm-3.129-.519h2.51c-.069-1.107-.344-1.35-1.17-1.35-.927 0-1.271.312-1.34 1.35zm7.391 1.488c0 1.003-.687 1.315-2.028 1.315a5.9 5.9 0 01-1.444-.173l.172-.52c.378.14.79.174 1.272.174 1.1 0 1.41-.242 1.41-.9 0-.623-.379-.865-1.341-.865h-.653v-.484H11c.86 0 1.238-.139 1.238-.692 0-.485-.31-.692-1.307-.692-.481 0-.894.069-1.237.173l-.172-.52c.343-.103.962-.172 1.375-.172 1.34 0 1.89.38 1.89 1.072 0 .52-.206 1.004-1.065 1.073.962.069 1.237.588 1.237 1.21zm1.1-1.038c0-1.8.654-2.319 1.994-2.319 1.376 0 1.994.52 1.994 2.319 0 1.834-.618 2.353-1.994 2.353-1.375 0-1.993-.554-1.993-2.353zm.62 0c0 1.453.343 1.8 1.374 1.8 1.032 0 1.376-.347 1.376-1.8 0-1.523-.344-1.8-1.376-1.8-1.03 0-1.375.277-1.375 1.8zm5.155-1.696v3.91h-.584v-4.429h3.506v4.43h-.55v-3.911h-2.372zm5.398 0c-.103 1.246-.447 2.768-.825 3.91h-.619c.447-1.246.825-2.733.894-4.429h2.681v4.43h-.55v-3.911h-1.581zm6.875 3.703c-.48.208-1.237.346-1.787.346-1.272 0-1.788-.346-1.788-1.488 0-1.28.756-1.453 1.753-1.453.447 0 .791.035 1.272.139 0-1.073-.275-1.315-1.306-1.315-.412 0-.928.069-1.272.207l-.172-.519c.344-.104.86-.207 1.478-.207 1.272 0 1.822.38 1.822 1.73v2.56zm-.55-2.007c-.309-.069-.756-.103-1.203-.103-.894 0-1.169.103-1.169.9 0 .899.241 1.003 1.17 1.003.412 0 .859-.07 1.202-.208V46.09zm3.609 2.214h-.584v-3.91h-1.719v-.519h4.022v.519h-1.719v3.91zm3.026-2.145v2.145h-.585v-4.429h.585v1.765h2.372v-1.765h.55v4.43h-.55v-2.146h-2.372zm7.701 1.938c-.482.208-1.238.346-1.788.346-1.272 0-1.788-.346-1.788-1.488 0-1.28.757-1.453 1.754-1.453.447 0 .79.035 1.272.139 0-1.073-.276-1.315-1.307-1.315-.412 0-.928.069-1.272.207l-.172-.519c.344-.104.86-.207 1.479-.207 1.272 0 1.822.38 1.822 1.73v2.56zm-.585-2.007c-.31-.069-.756-.103-1.203-.103-.894 0-1.169.103-1.169.9 0 .899.24 1.003 1.169 1.003.413 0 .86-.07 1.203-.208V46.09zm4.984-1.696v3.91h-.584v-4.429h3.506v4.43h-.55v-3.911h-2.372zm4.814 3.668V50h-.584v-5.883c.48-.207 1.237-.345 1.787-.345 1.375 0 1.994.519 1.994 2.318 0 1.834-.619 2.353-1.994 2.353-.619 0-.963-.208-1.203-.38zm0-3.564v2.768c0 .416.55.623 1.203.623 1.031 0 1.375-.346 1.375-1.8 0-1.522-.344-1.798-1.375-1.798-.413 0-.86.069-1.203.207zm7.837 3.599c-.48.208-1.237.346-1.787.346-1.272 0-1.788-.346-1.788-1.488 0-1.28.756-1.453 1.753-1.453.447 0 .791.035 1.272.139 0-1.073-.275-1.315-1.306-1.315-.413 0-.928.069-1.272.207l-.172-.519a5.2 5.2 0 011.478-.207c1.272 0 1.822.38 1.822 1.73v2.56zm-.55-2.007c-.31-.069-.756-.103-1.203-.103-.894 0-1.169.103-1.169.9 0 .899.24 1.003 1.17 1.003.412 0 .859-.07 1.202-.208V46.09zm5.501.968c0 .83-.447 1.246-1.203 1.246h-2.407v-4.429h2.338c.962 0 1.169.484 1.169 1.038 0 .52-.103.934-.86.969.757.07.963.588.963 1.176zm-.722-2.041c0-.45-.138-.623-.653-.623h-1.685v1.28h1.685c.515 0 .653-.276.653-.657zm.103 2.041c0-.519-.206-.865-.722-.865h-1.719v1.592h1.753c.516 0 .688-.242.688-.727zm1.719-.968c0-1.8.653-2.319 1.994-2.319 1.375 0 1.994.52 1.994 2.319 0 1.834-.619 2.353-1.994 2.353s-1.994-.554-1.994-2.353zm.619 0c0 1.453.344 1.8 1.375 1.8 1.031 0 1.375-.347 1.375-1.8 0-1.523-.344-1.8-1.375-1.8-1.031 0-1.375.277-1.375 1.8zm8.216.968c0 .83-.447 1.246-1.203 1.246h-2.406v-4.429h2.337c.963 0 1.17.484 1.17 1.038 0 .52-.104.934-.86.969.722.07.962.588.962 1.176zm-.756-2.041c0-.45-.138-.623-.653-.623h-1.685v1.28h1.685c.515 0 .653-.276.653-.657zm.103 2.041c0-.519-.206-.865-.722-.865h-1.719v1.592h1.754c.55 0 .687-.242.687-.727zm5.225 1.039c-.48.208-1.237.346-1.787.346-1.272 0-1.788-.346-1.788-1.488 0-1.28.756-1.453 1.753-1.453.447 0 .791.035 1.272.139 0-1.073-.275-1.315-1.306-1.315-.413 0-.928.069-1.272.207l-.172-.519a5.2 5.2 0 011.478-.207c1.272 0 1.822.38 1.822 1.73v2.56zm-.55-2.007c-.31-.069-.756-.103-1.203-.103-.894 0-1.169.103-1.169.9 0 .899.241 1.003 1.17 1.003.412 0 .859-.07 1.202-.208V46.09zm4.503 1.695c.344-1.107.653-2.457.722-3.91h2.682v3.91h.79l-.137 1.661h-.413v-1.107h-3.747v1.107h-.412l-.138-1.661h.653zm1.272-3.391a20.318 20.318 0 01-.653 3.391h2.235v-3.391h-1.582zm3.576 1.696c0-1.8.653-2.319 1.994-2.319 1.375 0 1.994.52 1.994 2.319 0 1.834-.619 2.353-1.994 2.353s-1.994-.554-1.994-2.353zm.619 0c0 1.453.344 1.8 1.375 1.8 1.031 0 1.375-.347 1.375-1.8 0-1.523-.344-1.8-1.375-1.8-1.031 0-1.375.277-1.375 1.8zm5.156-1.696v3.91h-.584v-4.429H99.9v4.43h-.55v-3.911h-2.372zm4.16 1.696c0-1.8.653-2.319 1.994-2.319 1.375 0 1.993.52 1.993 2.319 0 1.834-.618 2.353-1.993 2.353-1.341 0-1.994-.554-1.994-2.353zm.653 0c0 1.453.344 1.8 1.375 1.8 1.031 0 1.375-.347 1.375-1.8 0-1.523-.344-1.8-1.375-1.8-1.031 0-1.375.277-1.375 1.8zm8.319-2.215h.929v4.43h-.585v-3.911a50.57 50.57 0 00-1.512 3.599h-.516c-.447-1.142-.963-2.457-1.478-3.599v3.91h-.585v-4.429h.963c.481 1.107.962 2.18 1.409 3.287a44.99 44.99 0 011.375-3.287zm2.132 2.215c0-1.8.653-2.319 1.994-2.319 1.375 0 1.994.52 1.994 2.319 0 1.834-.619 2.353-1.994 2.353s-1.994-.554-1.994-2.353zm.619 0c0 1.453.344 1.8 1.375 1.8 1.031 0 1.375-.347 1.375-1.8 0-1.523-.344-1.8-1.375-1.8-1.031 0-1.375.277-1.375 1.8zm7.391-2.215v.519h-2.235v3.91h-.584v-4.429h2.819zm4.091 4.222c-.481.208-1.238.346-1.788.346-1.272 0-1.787-.346-1.787-1.488 0-1.28.756-1.453 1.753-1.453a5.5 5.5 0 011.272.139c0-1.073-.275-1.315-1.307-1.315-.412 0-.928.069-1.272.207l-.171-.519a5.194 5.194 0 011.478-.207c1.272 0 1.822.38 1.822 1.73v2.56zm-.55-2.007c-.31-.069-.757-.103-1.203-.103-.894 0-1.169.103-1.169.9 0 .899.24 1.003 1.169 1.003.412 0 .859-.07 1.203-.208V46.09zM21.383.035l-6.326 6.332-2.406-2.422-8.732 8.79 11.172 11.21 15.023-15.12-8.731-8.79zM3.128 11.972L0 8.79 8.732 0l3.163 3.149-1.547 1.557L8.732 3.08 3.06 8.789l1.615 1.626-1.547 1.557z" fill="#fff"/></svg>