<svg width="189" height="76" fill="none" xmlns="http://www.w3.org/2000/svg"><path d="M14.788 55.066c0 3.313-1.672 4.47-4.337 4.47H1.098V42.97h9.3c3.293 0 4.077 1.367 4.077 3.944 0 2.315-.575 3.63-3.502 3.84 3.136.21 3.815 1.736 3.815 4.313zm-9.928-5.68h4.494c.731 0 1.045-.421 1.045-1.579 0-1.157-.314-1.577-1.045-1.577H4.86v3.155zm4.598 6.89c.784 0 1.202-.527 1.202-1.842 0-1.367-.47-1.945-1.306-1.945H4.86v3.786h4.598zm24.297-5.206c0 6.784-2.717 8.783-7.995 8.783-5.277 0-7.994-1.946-7.994-8.784 0-6.68 2.717-8.467 7.994-8.467 5.278 0 7.995 1.788 7.995 8.467zm-4.023.052c0-4.523-.627-4.997-3.92-4.997-3.291 0-3.918.526-3.918 4.997 0 4.576.627 5.26 3.919 5.26s3.919-.684 3.919-5.26zm13.063-4.787c-.365 4.05-1.202 8.625-2.821 13.149H35.95c1.62-4.892 3.083-10.52 3.292-16.515h11.496v16.515h-3.815v-13.15h-4.128zM70.28 51.07c0 6.784-2.717 8.783-7.994 8.783-5.278 0-7.995-1.946-7.995-8.784 0-6.68 2.717-8.467 7.995-8.467 5.277 0 7.995 1.788 7.995 8.467zm-4.023.052c0-4.523-.627-4.997-3.919-4.997-3.344 0-3.919.526-3.919 4.997 0 4.576.627 5.26 3.919 5.26 3.292-.053 3.919-.684 3.919-5.26zm11.339 8.362H73.78V42.969h3.815v5.996h6.166v-5.996h3.814v16.515h-3.814V52.54h-6.166v6.943zm17.871 0v-13.15h-5.486V42.97h14.735v3.366h-5.434v13.149h-3.815zm23.932-16.515v3.366h-8.465v2.945h6.062v3.261h-6.062v3.577h8.465v3.366h-12.227V42.969h12.227zm2.978 16.515V42.969h9.144c3.344 0 4.494 2.42 4.494 5.785 0 2.998-1.411 5.575-4.494 5.575h-5.382v5.155h-3.762zm7.838-8.258c.993 0 1.672-.684 1.672-2.42 0-1.787-.575-2.524-1.62-2.524h-4.076v4.944h4.024zm19.647-6.837h-8.778v5.575h6.166c3.501 0 4.337 1.998 4.337 4.891 0 3.103-1.463 4.681-4.076 4.681h-8.152V42.97h10.451v1.42h.052zm-.052 10.414c0-1.999-.732-3.472-2.404-3.472h-6.322v6.733h6.427c1.776 0 2.299-1.315 2.299-3.261zm7.995 4.681h-1.672V42.969h12.07v16.515h-1.672V44.389h-8.726v15.095zm31.142-1.42l-.47 5.049h-1.411v-3.63h-14.108v3.63h-1.463l-.471-5.05h2.404c1.724-4.05 2.56-9.098 2.822-15.094h9.719v15.095h2.978zm-4.65-13.675h-6.48c-.261 4.576-.94 9.52-2.351 13.675h8.883V44.389h-.052z" fill="#008687"/><path d="M5.382 64.691c-.627.316-1.41.42-2.351.526-1.672.158-1.934.841-2.143 2.472.366-.579.993-.947 2.09-.947 1.83 0 2.822.842 2.822 3.471 0 2.63-.993 3.367-3.03 3.367-1.83 0-2.77-1-2.77-3.945 0-4.313.94-5.102 3.03-5.312.837-.105 1.62-.21 2.352-.526v.894zm-2.613 8.1c1.568 0 2.09-.421 2.09-2.578 0-2.05-.522-2.577-1.88-2.577-1.673 0-2.038.632-2.038 2.578 0 1.788.627 2.577 1.828 2.577zM13.22 70.16H8.413c0 2.21.68 2.683 2.247 2.683.47 0 1.359-.158 1.934-.368l.209.788c-.68.21-1.62.369-2.195.369-2.038 0-3.135-.842-3.135-3.577 0-2.63 1.045-3.524 3.03-3.524 1.881 0 2.717.737 2.717 3.63zm-4.755-.789h3.815c-.105-1.683-.523-2.05-1.777-2.05-1.41 0-1.933.472-2.038 2.05zM19.7 71.633c0 1.525-1.046 1.999-3.084 1.999-.783 0-1.62-.106-2.194-.263l.261-.79c.575.211 1.202.264 1.933.264 1.673 0 2.143-.368 2.143-1.368 0-.947-.575-1.315-2.038-1.315h-.993v-.736h.993c1.306 0 1.881-.21 1.881-1.052 0-.736-.47-1.052-1.986-1.052-.731 0-1.358.105-1.88.263l-.262-.789c.523-.158 1.463-.263 2.09-.263 2.038 0 2.874.579 2.874 1.63 0 .79-.313 1.526-1.62 1.631 1.463.105 1.881.894 1.881 1.841zm1.671-1.578c0-2.735.993-3.524 3.03-3.524 2.09 0 3.032.79 3.032 3.524 0 2.788-.941 3.577-3.031 3.577-2.09 0-3.03-.842-3.03-3.577zm.94 0c0 2.21.523 2.735 2.09 2.735 1.568 0 2.09-.526 2.09-2.735 0-2.314-.522-2.735-2.09-2.735-1.567 0-2.09.42-2.09 2.735zm7.839-2.575v5.944h-.888V66.69h5.33v6.733h-.837V67.48H30.15zm8.204 0c-.157 1.894-.68 4.208-1.254 5.944h-.94c.679-1.894 1.253-4.155 1.358-6.733h4.075v6.733h-.836V67.48h-2.403zm10.45 5.628c-.731.315-1.88.526-2.717.526-1.933 0-2.717-.526-2.717-2.262 0-1.946 1.15-2.209 2.665-2.209.68 0 1.202.053 1.933.21 0-1.63-.418-1.998-1.985-1.998-.627 0-1.411.105-1.934.315l-.26-.788a7.911 7.911 0 012.246-.316c1.933 0 2.77.579 2.77 2.63v3.892zm-.836-3.05c-.47-.106-1.15-.159-1.829-.159-1.358 0-1.776.158-1.776 1.368 0 1.367.366 1.525 1.776 1.525.628 0 1.307-.105 1.83-.315v-2.42zm5.487 3.366h-.888V67.48h-2.613v-.789h6.114v.79h-2.613v5.943zm4.598-3.261v3.26h-.888v-6.732h.888v2.683h3.606V66.69h.836v6.733h-.836v-3.261h-3.606zm11.706 2.945c-.732.315-1.882.526-2.718.526-1.933 0-2.717-.526-2.717-2.262 0-1.946 1.15-2.209 2.665-2.209.68 0 1.202.053 1.933.21 0-1.63-.418-1.998-1.985-1.998-.627 0-1.411.105-1.933.315l-.262-.788a7.911 7.911 0 012.247-.316c1.933 0 2.77.579 2.77 2.63v3.892zm-.889-3.05c-.47-.106-1.15-.159-1.829-.159-1.358 0-1.776.158-1.776 1.368 0 1.367.366 1.525 1.776 1.525.627 0 1.307-.105 1.83-.315v-2.42zm7.577-2.578v5.944h-.888V66.69h5.33v6.733h-.837V67.48h-3.605zm7.314 5.573v2.945h-.888v-8.94c.732-.316 1.881-.527 2.717-.527 2.09 0 3.03.79 3.03 3.524 0 2.788-.94 3.577-3.03 3.577-.94 0-1.463-.316-1.829-.579zm0-5.417v4.207c0 .632.836.947 1.83.947 1.567 0 2.09-.526 2.09-2.735 0-2.314-.523-2.735-2.09-2.735-.628 0-1.307.105-1.83.316zm11.915 5.472c-.732.315-1.882.526-2.718.526-1.933 0-2.717-.526-2.717-2.262 0-1.946 1.15-2.209 2.665-2.209.68 0 1.202.053 1.933.21 0-1.63-.418-1.998-1.985-1.998-.627 0-1.411.105-1.933.315l-.262-.788a7.911 7.911 0 012.247-.316c1.933 0 2.77.579 2.77 2.63v3.892zm-.837-3.05c-.47-.106-1.15-.159-1.828-.159-1.359 0-1.777.158-1.777 1.368 0 1.367.366 1.525 1.777 1.525.627 0 1.306-.105 1.829-.315v-2.42zm8.361 1.472c0 1.262-.679 1.894-1.828 1.894h-3.658V66.69h3.553c1.463 0 1.777.737 1.777 1.578 0 .79-.157 1.42-1.307 1.473 1.15.105 1.463.894 1.463 1.788zm-1.097-3.103c0-.684-.209-.947-.993-.947h-2.56v1.946h2.56c.784 0 .993-.42.993-.999zm.157 3.103c0-.789-.314-1.315-1.097-1.315H98.55v2.42h2.665c.784 0 1.045-.369 1.045-1.105zm2.612-1.475c0-2.735.993-3.524 3.031-3.524 2.09 0 3.03.79 3.03 3.524 0 2.788-.94 3.577-3.03 3.577s-3.031-.842-3.031-3.577zm.941 0c0 2.21.522 2.735 2.09 2.735 1.567 0 2.09-.526 2.09-2.735 0-2.314-.523-2.735-2.09-2.735-1.568 0-2.09.42-2.09 2.735zm12.488 1.475c0 1.262-.679 1.894-1.829 1.894h-3.658V66.69h3.554c1.463 0 1.776.737 1.776 1.578 0 .79-.156 1.42-1.306 1.473 1.097.105 1.463.894 1.463 1.788zm-1.15-3.103c0-.684-.209-.947-.992-.947h-2.561v1.946h2.561c.783 0 .992-.42.992-.999zm.157 3.103c0-.789-.313-1.315-1.097-1.315h-2.613v2.42h2.665c.836 0 1.045-.369 1.045-1.105zm7.943 1.578c-.732.315-1.881.526-2.717.526-1.934 0-2.718-.526-2.718-2.262 0-1.946 1.15-2.209 2.665-2.209.68 0 1.202.053 1.934.21 0-1.63-.418-1.998-1.986-1.998-.627 0-1.411.105-1.933.315l-.262-.788a7.917 7.917 0 012.247-.316c1.934 0 2.77.579 2.77 2.63v3.892zm-.836-3.05c-.471-.106-1.15-.159-1.829-.159-1.359 0-1.777.158-1.777 1.368 0 1.367.366 1.525 1.777 1.525.627 0 1.306-.105 1.829-.315v-2.42zm6.845 2.577c.523-1.683.993-3.735 1.098-5.944h4.075v5.944h1.202l-.209 2.524h-.627v-1.683h-5.695v1.683h-.627l-.209-2.524h.992zm1.934-5.155a30.931 30.931 0 01-.993 5.155h3.396V67.48h-2.403zm5.434 2.575c0-2.735.993-3.524 3.031-3.524 2.09 0 3.03.79 3.03 3.524 0 2.788-.94 3.577-3.03 3.577-2.091 0-3.031-.842-3.031-3.577zm.94 0c0 2.21.523 2.735 2.091 2.735 1.567 0 2.09-.526 2.09-2.735 0-2.314-.523-2.735-2.09-2.735-1.568 0-2.091.42-2.091 2.735zm7.839-2.575v5.944h-.888V66.69h5.329v6.733h-.836V67.48h-3.605zm6.322 2.575c0-2.735.993-3.524 3.031-3.524 2.09 0 3.031.79 3.031 3.524 0 2.788-.941 3.577-3.031 3.577-2.038 0-3.031-.842-3.031-3.577zm.993 0c0 2.21.523 2.735 2.09 2.735 1.568 0 2.091-.526 2.091-2.735 0-2.314-.523-2.735-2.091-2.735-1.567 0-2.09.42-2.09 2.735zm12.645-3.364h1.411v6.733h-.888V67.48a77.258 77.258 0 00-2.299 5.47h-.784c-.679-1.735-1.463-3.734-2.247-5.47v5.944h-.888V66.69h1.463c.732 1.683 1.463 3.314 2.142 4.997a67.98 67.98 0 012.09-4.997zm3.239 3.364c0-2.735.993-3.524 3.031-3.524 2.09 0 3.031.79 3.031 3.524 0 2.788-.941 3.577-3.031 3.577-2.09 0-3.031-.842-3.031-3.577zm.941 0c0 2.21.523 2.735 2.09 2.735 1.568 0 2.09-.526 2.09-2.735 0-2.314-.522-2.735-2.09-2.735-1.567 0-2.09.42-2.09 2.735zm11.235-3.364v.79h-3.397v5.943h-.888V66.69h4.285zM189 73.108c-.732.315-1.881.526-2.717.526-1.934 0-2.718-.526-2.718-2.262 0-1.946 1.15-2.209 2.665-2.209.68 0 1.202.053 1.934.21 0-1.63-.418-1.998-1.986-1.998-.627 0-1.411.105-1.933.315l-.262-.788a7.917 7.917 0 012.247-.316c1.934 0 2.77.579 2.77 2.63v3.892zm-.836-3.05c-.471-.106-1.15-.159-1.829-.159-1.359 0-1.777.158-1.777 1.368 0 1.367.366 1.525 1.777 1.525.627 0 1.306-.105 1.829-.315v-2.42z" fill="#636466"/><path d="M32.502.05l-9.615 9.626-3.658-3.682-13.272 13.36 16.982 17.04L45.774 13.41 32.502.05zM4.755 18.198L0 13.359 13.272 0l4.808 4.786-2.352 2.367-2.456-2.472-8.621 8.678 2.455 2.472-2.351 2.367z" fill="#008687"/></svg>