<svg width="188" height="27" fill="none" xmlns="http://www.w3.org/2000/svg"><path d="M21.911.486L15.446 7.05l-2.473-2.51-8.938 9.073 11.411 11.584L30.892 9.56 21.911.486zM3.21 12.818L0 9.558 8.981.442l3.211 3.26-1.562 1.63-1.649-1.718L3.124 9.56l1.649 1.674-1.562 1.585zm44.864-2.731c0 2.687-1.345 3.611-3.471 3.611h-7.506V.308h7.462c2.647 0 3.298 1.102 3.298 3.216 0 1.85-.434 2.951-2.82 3.127 2.473.132 3.037 1.366 3.037 3.436zm-7.94-4.581h3.601c.608 0 .868-.352.868-1.277 0-.925-.26-1.278-.868-1.278h-3.601v2.555zm3.688 5.55c.65 0 .954-.44.954-1.498 0-1.101-.347-1.585-1.041-1.585h-3.601v3.083h3.688zm19.481-4.185c0 5.506-2.213 7.091-6.422 7.091-4.252 0-6.421-1.585-6.421-7.09C50.46 1.453 52.63 0 56.881 0c4.252 0 6.422 1.454 6.422 6.871zm-3.254.044c0-3.656-.478-4.052-3.168-4.052-2.69 0-3.167.44-3.167 4.052 0 3.7.477 4.229 3.167 4.229s3.168-.529 3.168-4.229zm10.5-3.875c-.304 3.259-.998 7.003-2.256 10.659h-3.211c1.302-3.965 2.473-8.501 2.647-13.39h9.241v13.39h-3.037V3.038H70.55zm22.085 3.831c0 5.506-2.213 7.091-6.422 7.091-4.252 0-6.421-1.585-6.421-7.09C79.834 1.453 82.004 0 86.212 0c4.21 0 6.422 1.454 6.422 6.871zm-3.254.044c0-3.656-.477-4.052-3.168-4.052-2.69 0-3.167.44-3.167 4.052 0 3.7.477 4.229 3.167 4.229s3.168-.529 3.168-4.229zm9.154 6.783h-3.037V.308h3.037v4.89h4.946V.308h3.038v13.39h-3.038V8.061h-4.946v5.637zm14.318 0V3.04h-4.382V.31h11.845v2.686h-4.383v10.66h-3.08v.043zM132.073.309v2.686h-6.769v2.379h4.86v2.643h-4.86v2.995h6.769v2.686h-9.849V.308h9.849zm2.386 13.389V.308h7.333c2.69 0 3.601 1.939 3.601 4.713 0 2.423-1.128 4.493-3.601 4.493h-4.339v4.184h-2.994zm6.291-6.694c.781 0 1.302-.573 1.302-1.938 0-1.454-.434-2.07-1.302-2.07h-3.297v4.008h3.297zm15.793-5.506h-7.029V5.99h4.947c2.776 0 3.514 1.63 3.514 3.965 0 2.51-1.171 3.787-3.297 3.787h-6.552V.31h8.417v1.189zM156.5 9.91c0-1.63-.564-2.82-1.909-2.82h-5.077v5.462h5.164c1.388 0 1.822-1.1 1.822-2.642zm6.422 3.788h-1.345V.308h9.676v13.39h-1.345v-12.2h-6.986v12.2zm24.991-1.146l-.39 4.096h-1.172v-2.95h-11.324v2.95h-1.172l-.39-4.096h1.952c1.389-3.303 2.04-7.355 2.256-12.2h7.81v12.2h2.43zm-3.731-11.055h-5.207c-.217 3.744-.737 7.708-1.909 11.055h7.116V1.497z" fill="#008687"/><path d="M41.392 17.883c-.477.265-1.128.353-1.866.44-1.345.133-1.518.662-1.692 2.027.304-.44.781-.749 1.692-.749 1.476 0 2.213.66 2.213 2.775 0 2.114-.78 2.73-2.43 2.73-1.475 0-2.212-.792-2.212-3.17 0-3.48.737-4.097 2.43-4.273.65-.044 1.301-.176 1.865-.44v.66zm-2.083 6.563c1.259 0 1.65-.352 1.65-2.07 0-1.674-.435-2.114-1.476-2.114-1.345 0-1.649.484-1.649 2.114 0 1.41.52 2.07 1.475 2.07zm8.331-2.158h-3.818c0 1.762.564 2.158 1.78 2.158.39 0 1.084-.132 1.518-.308l.174.66c-.565.177-1.302.309-1.78.309-1.605 0-2.516-.66-2.516-2.907 0-2.114.824-2.82 2.386-2.82 1.606 0 2.257.617 2.257 2.908zm-3.818-.617h3.038c-.044-1.365-.434-1.63-1.389-1.63-1.128-.044-1.562.353-1.649 1.63zm8.981 1.806c0 1.233-.867 1.63-2.473 1.63-.607 0-1.301-.088-1.735-.22l.217-.617c.434.176.954.22 1.562.22 1.345 0 1.735-.264 1.735-1.101 0-.749-.477-1.057-1.649-1.057h-.78v-.617h.78c1.042 0 1.476-.176 1.476-.837 0-.572-.39-.837-1.606-.837-.564 0-1.084.045-1.475.22l-.173-.66c.433-.132 1.171-.22 1.692-.22 1.648 0 2.3.44 2.3 1.321 0 .66-.218 1.233-1.302 1.322 1.128.044 1.431.704 1.431 1.453zm1.345-1.277c0-2.203.781-2.82 2.43-2.82s2.43.617 2.43 2.82c0 2.246-.781 2.907-2.43 2.907s-2.43-.66-2.43-2.907zm.781 0c0 1.762.434 2.202 1.65 2.202 1.257 0 1.691-.44 1.691-2.202 0-1.85-.434-2.203-1.692-2.203-1.258.044-1.649.353-1.649 2.203zm6.248-2.028v4.801h-.695v-5.461h4.252v5.417h-.694v-4.757h-2.863zm6.552.001c-.13 1.498-.521 3.392-.998 4.801h-.738c.52-1.497.998-3.347 1.085-5.417h3.254v5.417h-.694v-4.8h-1.91zm8.331 4.493c-.564.265-1.476.44-2.17.44-1.519 0-2.17-.44-2.17-1.805 0-1.542.912-1.806 2.127-1.806.564 0 .954.044 1.518.176 0-1.321-.347-1.63-1.562-1.63-.52 0-1.128.089-1.518.265l-.217-.66a6.1 6.1 0 011.779-.265c1.562 0 2.213.44 2.213 2.114v3.171zm-.695-2.422c-.39-.088-.91-.132-1.431-.132-1.085 0-1.432.132-1.432 1.1 0 1.102.303 1.234 1.431 1.234.521 0 1.042-.088 1.432-.264v-1.938zm4.382 2.686h-.695v-4.758H76.97v-.66h4.903v.66H79.79v4.757h-.043zm3.688-2.643v2.642h-.694v-5.417h.694v2.158h2.907v-2.158h.695v5.417h-.695v-2.642h-2.907zm9.329 2.379c-.564.265-1.476.44-2.17.44-1.518 0-2.17-.44-2.17-1.805 0-1.542.912-1.806 2.127-1.806.564 0 .954.044 1.518.176 0-1.321-.347-1.63-1.562-1.63-.52 0-1.128.089-1.518.265l-.217-.66a6.1 6.1 0 011.779-.265c1.562 0 2.213.44 2.213 2.114v3.171zm-.695-2.422c-.39-.088-.91-.132-1.431-.132-1.085 0-1.432.132-1.432 1.1 0 1.102.303 1.234 1.432 1.234.52 0 1.04-.088 1.431-.264v-1.938zm6.031-2.072v4.801h-.694v-5.461h4.252v5.417h-.694v-4.757H98.1zm5.858 4.449V27h-.694v-7.224c.564-.264 1.518-.44 2.169-.44 1.649 0 2.43.617 2.43 2.819 0 2.246-.781 2.907-2.43 2.907-.738.044-1.171-.22-1.475-.44zm0-4.36v3.391c0 .485.694.793 1.475.793 1.258 0 1.649-.44 1.649-2.202 0-1.85-.434-2.202-1.649-2.202-.521 0-1.041.044-1.475.22zm9.502 4.405c-.564.265-1.475.44-2.17.44-1.518 0-2.169-.44-2.169-1.805 0-1.542.911-1.806 2.126-1.806.564 0 .955.044 1.519.176 0-1.321-.347-1.63-1.562-1.63-.521 0-1.128.089-1.519.265l-.217-.66a6.105 6.105 0 011.779-.265c1.562 0 2.213.44 2.213 2.114v3.171zm-.651-2.422c-.39-.088-.911-.132-1.432-.132-1.084 0-1.432.132-1.432 1.1 0 1.102.304 1.234 1.432 1.234.521 0 1.042-.088 1.432-.264v-1.938zm6.682 1.144c0 1.013-.521 1.541-1.476 1.541h-2.907v-5.417h2.821c1.171 0 1.388.616 1.388 1.277 0 .66-.13 1.145-1.041 1.19.954.043 1.215.704 1.215 1.409zm-.912-2.51c0-.53-.173-.75-.781-.75h-2.039v1.542h2.039c.608.044.781-.308.781-.793zm.131 2.51c0-.66-.261-1.057-.868-1.057h-2.083v1.982h2.126c.651 0 .825-.309.825-.925zm2.082-1.188c0-2.203.781-2.82 2.43-2.82 1.648 0 2.429.617 2.429 2.82 0 2.246-.781 2.907-2.429 2.907-1.649 0-2.43-.66-2.43-2.907zm.781 0c0 1.762.434 2.202 1.649 2.202 1.258 0 1.692-.44 1.692-2.202 0-1.85-.434-2.203-1.692-2.203-1.259.044-1.649.353-1.649 2.203zm9.936 1.188c0 1.013-.52 1.541-1.475 1.541h-2.907v-5.417h2.82c1.172 0 1.389.616 1.389 1.277 0 .66-.131 1.145-1.042 1.19.955.043 1.215.704 1.215 1.409zm-.868-2.51c0-.53-.173-.75-.781-.75h-2.039v1.542h2.039c.608.044.781-.308.781-.793zm.131 2.51c0-.66-.261-1.057-.868-1.057h-2.083v1.982h2.126c.608 0 .825-.309.825-.925zm6.334 1.278c-.564.265-1.475.44-2.169.44-1.519 0-2.169-.44-2.169-1.805 0-1.542.911-1.806 2.126-1.806.564 0 .954.044 1.518.176 0-1.321-.347-1.63-1.562-1.63-.52 0-1.128.089-1.518.265l-.217-.66a6.099 6.099 0 011.779-.265c1.562 0 2.212.44 2.212 2.114v3.171zm-.694-2.422c-.39-.088-.911-.132-1.432-.132-1.084 0-1.431.132-1.431 1.1 0 1.102.303 1.234 1.431 1.234.521 0 1.042-.088 1.432-.264v-1.938zm5.467 2.069c.433-1.366.78-2.995.867-4.801H146v4.8h.955l-.174 2.027h-.52v-1.366h-4.556v1.366h-.521l-.173-2.026h.868zm1.518-4.14c-.13 1.277-.434 2.818-.781 4.14h2.69v-4.14h-1.909zm4.339 2.027c0-2.203.781-2.82 2.43-2.82s2.43.617 2.43 2.82c0 2.246-.781 2.907-2.43 2.907s-2.43-.66-2.43-2.907zm.781 0c0 1.762.434 2.202 1.649 2.202 1.258 0 1.692-.44 1.692-2.202 0-1.85-.434-2.203-1.692-2.203-1.258.044-1.649.353-1.649 2.203zm6.248-2.028v4.801h-.695v-5.461h4.252v5.417h-.694v-4.757h-2.863zm5.077 2.028c0-2.203.781-2.82 2.43-2.82 1.648 0 2.429.617 2.429 2.82 0 2.246-.781 2.907-2.429 2.907-1.693 0-2.43-.66-2.43-2.907zm.737 0c0 1.762.434 2.202 1.649 2.202 1.258 0 1.692-.44 1.692-2.202 0-1.85-.434-2.203-1.692-2.203-1.215.044-1.649.353-1.649 2.203zm10.109-2.688h1.128v5.417h-.694v-4.8c-.651 1.409-1.345 3.038-1.822 4.404h-.651a78.188 78.188 0 00-1.779-4.405v4.801h-.694v-5.417h1.171a79.167 79.167 0 011.692 4.052c.478-1.41 1.042-2.73 1.649-4.052zm2.603 2.688c0-2.203.781-2.82 2.43-2.82 1.648 0 2.429.617 2.429 2.82 0 2.246-.781 2.907-2.429 2.907-1.692 0-2.43-.66-2.43-2.907zm.738 0c0 1.762.433 2.202 1.648 2.202 1.259 0 1.692-.44 1.692-2.202 0-1.85-.433-2.203-1.692-2.203-1.215.044-1.648.353-1.648 2.203zm8.981-2.688v.66h-2.69v4.801h-.694v-5.461h3.384zm4.99 5.154c-.564.265-1.475.44-2.169.44-1.519 0-2.17-.44-2.17-1.805 0-1.542.911-1.806 2.126-1.806.564 0 .955.044 1.519.176 0-1.321-.347-1.63-1.562-1.63-.521 0-1.128.089-1.519.265l-.217-.66a6.105 6.105 0 011.779-.265c1.562 0 2.213.44 2.213 2.114v3.171zm-.694-2.422c-.391-.088-.911-.132-1.432-.132-1.085 0-1.432.132-1.432 1.1 0 1.102.304 1.234 1.432 1.234.521 0 1.041-.088 1.432-.264v-1.938z" fill="#636466"/></svg>