<svg width="35" height="58" fill="none" xmlns="http://www.w3.org/2000/svg"><path d="M17.5.145a8.604 8.604 0 00-2.17 5.716c.08 4.814.671 9.623.723 14.428.107 4.487-1.24 8.7-2.88 12.812a95.928 95.928 0 01-1.729 3.36l-1.736-.35a2.884 2.884 0 01.554-5.716l.634.068L9.483 18.69a18.01 18.01 0 00-7.16-12.826A18.212 18.212 0 00.155 4.466v41.797h9.673a15.85 15.85 0 005.921 9.667 5.831 5.831 0 011.763 1.916 5.801 5.801 0 011.763-1.916 15.862 15.862 0 005.921-9.667h9.673V4.466a18.21 18.21 0 00-2.17 1.398c-3.991 2.99-6.696 7.589-7.159 12.826l-1.413 11.773.634-.068a2.898 2.898 0 012.824 2.323 2.887 2.887 0 01-2.27 3.394l-1.736.349c-.591-1.112-1.183-2.223-1.728-3.36-1.642-4.11-2.99-8.322-2.883-12.812.053-4.82.644-9.624.724-14.428A8.614 8.614 0 0017.52.145h-.02zM3.037 10.489a15.028 15.028 0 013.5 7.925l1.157 9.71a5.79 5.79 0 00-3.029 3.721H3.027V10.492l.01-.003zm28.925 0v21.354h-1.638a5.789 5.789 0 00-3.029-3.721l1.157-9.71a15.093 15.093 0 013.5-7.927l.01.004zM17.5 30.01a32.89 32.89 0 003.174 7.182 6.491 6.491 0 00-3.174 2.13 6.514 6.514 0 00-3.175-2.131 32.963 32.963 0 003.175-7.18zM3.037 34.734h1.638a5.801 5.801 0 004.05 4.115l1.39.316a15.813 15.813 0 00-.576 4.227H3.031v-8.657l.006-.001zm27.291 0h1.639v8.657h-6.509c0-1.463-.203-2.882-.575-4.228l1.39-.316a5.781 5.781 0 004.05-4.115l.005.002zm-17.384 5.093a3.605 3.605 0 013.106 3.562h-3.615c0-1.236.183-2.43.509-3.562zm9.107 0a12.86 12.86 0 01.51 3.562h-3.617a3.603 3.603 0 013.107-3.562zm-9.285 6.45h3.287v6.073a13.083 13.083 0 01-3.287-6.074zm6.18 0h3.287a12.966 12.966 0 01-3.287 6.073v-6.074z" fill="#023A4D"/></svg>