<svg width="72" height="27" fill="none" xmlns="http://www.w3.org/2000/svg"><path d="M31 13.54c0 1.643-.31 2.582-.31 2.582L.31 27S0 26.217 0 24.574c0-1.487.31-2.191.31-2.191l7.595-2.661V6.887L.31 4.147S0 3.444 0 2.036C0 .705.31 0 .31 0l30.38 10.878s.31 1.096.31 2.661zm41 0c0 1.643-.31 2.582-.31 2.582L41.31 27s-.31-.783-.31-2.426V2.034C41.078.705 41.31 0 41.31 0l30.38 10.878s.31 1.096.31 2.661zm-4.728-.236s-1.705-.391-3.875-1.095l-10.85-3.992v10.33l10.85-3.99c2.248-.783 3.875-1.096 3.875-1.096v-.157z" fill="#009B3D"/></svg>