<svg viewBox="0 0 32 65" xmlns="http://www.w3.org/2000/svg" xmlns:xlink="http://www.w3.org/1999/xlink"><style>:root&gt;svg{display:none}:root&gt;svg:target{display:block}</style><svg viewBox="0 0 12 15" id="btn_arrow_right" xmlns="http://www.w3.org/2000/svg"><path d="M3.478 6.64L.892 4.055 4.266.704l6.315 6.274-6.5 6.482L.71 10.11l2.77-2.763.354-.354-.355-.354z"/></svg><svg viewBox="0 0 15 12" id="icon_arrow-burger-menu" xmlns="http://www.w3.org/2000/svg"><path d="M7.527 3.478L10.11.892l3.352 3.374-6.274 6.315-6.482-6.5L4.056.71l2.763 2.77.354.354.354-.355z"/></svg><svg viewBox="0 0 9 8" id="icon_arrow-menu" xmlns="http://www.w3.org/2000/svg"><path d="M6.424.117L4.557 1.985 2.577 0 0 2.593l4.567 4.579L9 2.71 6.424.117z"/></svg><svg viewBox="0 0 12 14" id="icon_arrow-next" xmlns="http://www.w3.org/2000/svg"><path d="M.182 4.008L3.088 6.91 0 9.992 4.034 14l7.122-7.105L4.216 0 .182 4.008z"/></svg><svg viewBox="0 0 12 14" id="icon_arrow-prev" xmlns="http://www.w3.org/2000/svg"><path d="M10.974 4.008L8.068 6.91l3.088 3.081L7.122 14 0 6.895 6.94 0l4.034 4.008z"/></svg><svg viewBox="0 0 24 65" id="icon_arrow-up" xmlns="http://www.w3.org/2000/svg"><path d="M0 14.965V65l24-14.965V0L0 14.965z"/><path d="M9.635 39.686l3.357-3.36 3.563 3.57 4.635-4.663L12.974 27 5 35.023l4.635 4.663z"/></svg><svg viewBox="0 0 24 24" id="icon_fb" xmlns="http://www.w3.org/2000/svg"><path d="M16.5 0h-9A7.5 7.5 0 000 7.5v9A7.5 7.5 0 007.5 24h9a7.5 7.5 0 007.5-7.5v-9A7.5 7.5 0 0016.5 0z"/><path d="M14.324 7.084h1.494V4.482a19.29 19.29 0 00-2.176-.115c-2.154 0-3.63 1.355-3.63 3.845v2.292H7.637v2.908h2.377v7.319h2.914v-7.318h2.28l.362-2.909h-2.643V8.5c0-.84.227-1.416 1.398-1.416z"/></svg><svg viewBox="0 0 30 40" id="icon_file_doc" xmlns="http://www.w3.org/2000/svg"><path d="M11.03 31.282h-.044c-.374.544-.934.816-1.68.816-.7 0-1.244-.24-1.635-.718-.387-.479-.581-1.159-.581-2.041 0-.882.195-1.567.586-2.056.39-.488.934-.732 1.63-.732.727 0 1.283.264 1.67.79h.064l-.034-.385-.02-.376v-2.178h.81V32h-.658l-.108-.718zm-1.62.137c.553 0 .953-.15 1.2-.45.251-.302.376-.789.376-1.46v-.17c0-.759-.127-1.299-.38-1.621-.251-.326-.653-.488-1.207-.488-.475 0-.84.185-1.093.556-.251.368-.376.889-.376 1.563 0 .683.125 1.2.376 1.547.25.349.618.523 1.103.523zm8.73-2.1c0 .873-.22 1.555-.66 2.046-.439.489-1.046.733-1.82.733-.48 0-.904-.113-1.275-.337a2.223 2.223 0 01-.86-.967c-.201-.42-.302-.912-.302-1.475 0-.872.218-1.55.654-2.036.436-.488 1.042-.732 1.816-.732.75 0 1.343.249 1.783.747.442.498.664 1.172.664 2.021zm-4.078 0c0 .684.137 1.205.41 1.563.274.358.676.537 1.207.537.53 0 .932-.178 1.206-.532.276-.358.415-.88.415-1.568 0-.68-.139-1.196-.415-1.547-.274-.355-.679-.533-1.216-.533-.53 0-.931.174-1.201.523-.27.348-.405.867-.405 1.557zm7.642 2.779c-.775 0-1.375-.238-1.802-.713-.423-.479-.634-1.154-.634-2.027 0-.895.214-1.587.644-2.075.433-.488 1.048-.732 1.846-.732.257 0 .514.027.771.083.258.055.46.12.606.195l-.25.689a3.643 3.643 0 00-.585-.176 2.535 2.535 0 00-.562-.073c-1.087 0-1.63.693-1.63 2.08 0 .657.131 1.162.395 1.513.267.352.66.528 1.182.528.446 0 .903-.096 1.372-.288v.717c-.358.186-.81.279-1.353.279z"/><path d="M29 1v38H1V8.414L8.414 1H29zM5 18.5h20m-20-4h20m-20-4h20"/></svg><svg viewBox="0 0 30 40" id="icon_file_jpg" xmlns="http://www.w3.org/2000/svg"><path d="M8.14 34.402c-.31 0-.56-.04-.752-.122v-.659c.224.065.446.098.664.098.254 0 .44-.07.556-.21.12-.137.181-.347.181-.63v-6.23h.81v6.171c0 1.055-.486 1.582-1.46 1.582zm.58-9.204c0-.185.046-.32.137-.405a.473.473 0 01.342-.132c.13 0 .243.044.337.132.095.088.142.223.142.405 0 .183-.047.32-.142.41a.477.477 0 01-.337.132.473.473 0 01-.342-.132c-.09-.09-.136-.227-.136-.41zm5.089 6.9a2.37 2.37 0 01-.957-.19 1.818 1.818 0 01-.723-.597h-.059c.04.313.059.61.059.89v2.201h-.81v-7.754h.658l.113.733h.039c.208-.293.45-.505.727-.635a2.22 2.22 0 01.953-.195c.71 0 1.256.242 1.64.727.388.485.581 1.166.581 2.041 0 .88-.197 1.563-.59 2.051-.391.485-.935.728-1.631.728zm-.118-4.859c-.546 0-.942.152-1.186.454-.244.303-.37.785-.376 1.446v.18c0 .752.125 1.291.376 1.617.25.322.653.483 1.206.483.462 0 .823-.187 1.084-.562.264-.374.395-.89.395-1.547 0-.668-.131-1.179-.395-1.534-.26-.358-.628-.537-1.104-.537zm8.14-.59v.512l-.991.117c.091.114.172.264.244.45.072.182.107.388.107.62 0 .524-.179.942-.537 1.255-.358.312-.85.468-1.474.468-.16 0-.31-.013-.45-.039-.345.183-.517.412-.517.689 0 .146.06.255.18.327.121.068.328.102.62.102h.948c.58 0 1.024.123 1.333.367.312.244.469.599.469 1.064 0 .592-.238 1.043-.713 1.353-.476.312-1.169.468-2.08.468-.7 0-1.24-.13-1.621-.39-.378-.26-.567-.629-.567-1.104 0-.325.104-.607.313-.845.208-.237.501-.398.879-.483a.866.866 0 01-.347-.288.772.772 0 01-.137-.454.86.86 0 01.157-.513c.104-.146.268-.288.493-.425a1.459 1.459 0 01-.68-.58 1.72 1.72 0 01-.258-.938c0-.586.176-1.037.527-1.353.352-.319.85-.478 1.495-.478.28 0 .532.032.756.097h1.851zm-4.267 6.25c0 .29.122.509.366.659.244.15.594.224 1.05.224.68 0 1.183-.102 1.508-.307.33-.202.493-.477.493-.826 0-.29-.09-.491-.268-.605-.18-.11-.516-.166-1.01-.166h-.973c-.367 0-.654.088-.859.264-.205.175-.307.428-.307.756zm.439-4.537c0 .375.106.658.317.85.212.192.506.288.884.288.791 0 1.187-.384 1.187-1.152 0-.804-.4-1.206-1.201-1.206-.381 0-.674.102-.88.307-.204.205-.307.51-.307.913z"/><path d="M29 1v38H1V8.414L8.414 1H29zM5 18.5h20m-20-4h20m-20-4h20"/></svg><svg viewBox="0 0 30 40" id="icon_file_pdf" xmlns="http://www.w3.org/2000/svg"><path d="M10.523 32.098c-.349 0-.668-.064-.958-.19a1.818 1.818 0 01-.722-.597h-.059c.04.313.059.61.059.89v2.201h-.81v-7.754h.658l.113.733h.039c.208-.293.45-.505.727-.635.277-.13.594-.195.953-.195.71 0 1.256.242 1.64.727.387.485.581 1.166.581 2.041 0 .88-.197 1.563-.59 2.051-.391.485-.935.728-1.631.728zm-.118-4.859c-.547 0-.942.152-1.186.454-.244.303-.37.785-.376 1.446v.18c0 .752.125 1.291.376 1.617.25.322.652.483 1.206.483.462 0 .823-.187 1.084-.562.264-.374.395-.89.395-1.547 0-.668-.131-1.179-.395-1.534-.26-.358-.629-.537-1.104-.537zm7.403 4.043h-.044c-.375.544-.935.816-1.68.816-.7 0-1.245-.24-1.636-.718-.387-.479-.58-1.159-.58-2.041 0-.882.194-1.567.585-2.056.39-.488.934-.732 1.631-.732.726 0 1.282.264 1.67.79h.063l-.034-.385-.02-.376v-2.178h.811V32h-.659l-.107-.718zm-1.622.137c.554 0 .954-.15 1.202-.45.25-.302.376-.789.376-1.46v-.17c0-.759-.127-1.299-.381-1.621-.25-.326-.653-.488-1.206-.488-.476 0-.84.185-1.094.556-.25.368-.376.889-.376 1.563 0 .683.125 1.2.376 1.547.25.349.618.523 1.103.523zm6.524-4.14h-1.362V32h-.81v-4.722h-.958v-.366l.957-.293v-.298c0-1.315.575-1.972 1.724-1.972.283 0 .615.057.996.17l-.21.65a2.682 2.682 0 00-.8-.151c-.307 0-.533.102-.68.307-.146.202-.22.527-.22.977v.346h1.363v.63z"/><path d="M29 1v38H1V8.414L8.414 1H29zM5 18.5h20m-20-4h20m-20-4h20"/></svg><svg viewBox="0 0 30 40" id="icon_file_png" xmlns="http://www.w3.org/2000/svg"><path d="M9.473 32.098a2.37 2.37 0 01-.957-.19 1.818 1.818 0 01-.723-.597h-.059c.04.313.059.61.059.89v2.201h-.81v-7.754h.659l.112.733h.039a1.87 1.87 0 01.728-.635c.276-.13.594-.195.952-.195.71 0 1.256.242 1.64.727.388.485.581 1.166.581 2.041 0 .88-.197 1.563-.59 2.051-.391.485-.935.728-1.631.728zm-.118-4.859c-.546 0-.942.152-1.186.454-.244.303-.37.785-.376 1.446v.18c0 .752.125 1.291.376 1.617.25.322.653.483 1.206.483.462 0 .824-.187 1.084-.562.264-.374.396-.89.396-1.547 0-.668-.132-1.179-.396-1.534-.26-.358-.628-.537-1.104-.537zM16.777 32v-3.462c0-.436-.099-.762-.297-.977-.2-.214-.51-.322-.933-.322-.56 0-.97.152-1.23.454-.261.303-.391.803-.391 1.5V32h-.81v-5.352h.658l.132.733h.04c.165-.264.398-.467.698-.61.299-.147.633-.22 1-.22.645 0 1.13.156 1.456.469.325.309.488.805.488 1.489V32h-.81zm6.86-5.352v.513l-.99.117a1.74 1.74 0 01.351 1.07c0 .524-.179.942-.537 1.255-.358.312-.85.468-1.475.468-.16 0-.309-.013-.449-.039-.345.183-.517.412-.517.689 0 .146.06.255.18.327.12.068.327.102.62.102h.948c.579 0 1.023.123 1.333.367.312.244.468.599.468 1.064 0 .592-.237 1.043-.713 1.353-.475.312-1.168.468-2.08.468-.7 0-1.24-.13-1.62-.39-.378-.26-.567-.629-.567-1.104 0-.325.104-.607.312-.845.209-.237.502-.398.88-.483a.866.866 0 01-.347-.288.772.772 0 01-.137-.454c0-.195.052-.366.156-.513.104-.146.269-.288.493-.425a1.458 1.458 0 01-.678-.58 1.72 1.72 0 01-.26-.938c0-.586.177-1.037.528-1.353.352-.319.85-.478 1.494-.478.28 0 .532.032.757.097h1.85zm-4.267 6.25c0 .29.122.51.366.66.244.15.594.224 1.05.224.68 0 1.183-.102 1.509-.307.329-.202.493-.477.493-.826 0-.29-.09-.491-.268-.605-.18-.11-.516-.166-1.011-.166h-.972c-.368 0-.654.088-.86.264-.204.175-.307.428-.307.756zm.44-4.536c0 .375.105.658.317.85.212.192.506.288.884.288.79 0 1.186-.384 1.186-1.152 0-.804-.4-1.206-1.2-1.206-.382 0-.675.102-.88.307-.205.205-.307.51-.307.913z"/><path d="M29 1v38H1V8.414L8.414 1H29zM5 18.5h20m-20-4h20m-20-4h20"/></svg><svg viewBox="0 0 30 40" id="icon_file_ppt" xmlns="http://www.w3.org/2000/svg"><path d="M10.45 32.098c-.35 0-.668-.064-.958-.19a1.818 1.818 0 01-.722-.597h-.06c.04.313.06.61.06.89v2.201h-.811v-7.754h.66l.111.733h.04c.208-.293.45-.505.727-.635.277-.13.594-.195.952-.195.71 0 1.257.242 1.64.727.388.485.582 1.166.582 2.041 0 .88-.197 1.563-.59 2.051-.391.485-.935.728-1.632.728zm-.118-4.859c-.547 0-.942.152-1.186.454-.245.303-.37.785-.376 1.446v.18c0 .752.125 1.291.376 1.617.25.322.652.483 1.206.483.462 0 .823-.187 1.083-.562.264-.374.396-.89.396-1.547 0-.668-.132-1.179-.396-1.534-.26-.358-.628-.537-1.103-.537zm6.25 4.859c-.348 0-.667-.064-.957-.19a1.819 1.819 0 01-.723-.597h-.058c.039.313.058.61.058.89v2.201h-.81v-7.754h.659l.112.733h.04c.208-.293.45-.505.727-.635.277-.13.594-.195.952-.195.71 0 1.256.242 1.64.727.388.485.582 1.166.582 2.041 0 .88-.197 1.563-.591 2.051-.39.485-.934.728-1.631.728zm-.117-4.859c-.547 0-.942.152-1.187.454-.244.303-.37.785-.376 1.446v.18c0 .752.126 1.291.376 1.617.251.322.653.483 1.206.483.463 0 .824-.187 1.084-.562.264-.374.396-.89.396-1.547 0-.668-.132-1.179-.396-1.534-.26-.358-.628-.537-1.103-.537zm5.488 4.19a2.795 2.795 0 00.733-.098v.62a1.436 1.436 0 01-.391.103c-.17.029-.322.044-.46.044-1.034 0-1.552-.546-1.552-1.636v-3.184h-.766v-.39l.766-.337.342-1.143h.469v1.24h1.552v.63h-1.552v3.15c0 .322.076.57.23.742.152.172.362.259.63.259z"/><path d="M29 1v38H1V8.414L8.414 1H29zM5 18.5h20m-20-4h20m-20-4h20"/></svg><svg viewBox="0 0 30 40" id="icon_file_rar" xmlns="http://www.w3.org/2000/svg"><path d="M11.435 26.55c.238 0 .451.02.64.06l-.112.751a2.763 2.763 0 00-.586-.073c-.433 0-.804.176-1.113.527-.306.352-.46.79-.46 1.314V32h-.81v-5.352h.67l.092.992h.039c.198-.349.438-.617.718-.806.28-.189.587-.283.922-.283zM16.367 32l-.16-.762h-.04c-.267.336-.534.563-.8.684-.265.117-.595.176-.992.176-.53 0-.947-.137-1.25-.41-.3-.274-.45-.663-.45-1.168 0-1.08.865-1.647 2.594-1.699l.908-.029v-.332c0-.42-.091-.73-.274-.928-.179-.202-.467-.302-.864-.302-.446 0-.95.136-1.514.41l-.249-.62a3.82 3.82 0 01.865-.337c.315-.082.631-.122.947-.122.638 0 1.11.141 1.416.424.31.284.464.738.464 1.363V32h-.6zm-1.83-.571c.504 0 .9-.139 1.186-.415.29-.277.434-.664.434-1.162v-.484l-.81.034c-.645.023-1.11.124-1.397.303-.283.176-.425.45-.425.825 0 .293.088.516.264.67.18.152.428.229.747.229zm6.547-4.878c.238 0 .45.02.64.058l-.113.752a2.762 2.762 0 00-.586-.073c-.433 0-.804.176-1.113.527-.306.352-.459.79-.459 1.314V32h-.81v-5.352h.668l.093.992h.04c.198-.349.437-.617.717-.806.28-.189.588-.283.923-.283z"/><path d="M29 1v38H1V8.414L8.414 1H29zM5 18.5h20m-20-4h20m-20-4h20"/></svg><svg viewBox="0 0 30 40" id="icon_file_unknown" xmlns="http://www.w3.org/2000/svg"><path d="M29 1v38H1V8.414L8.414 1H29zM5 18.5h20m-20 8h15m-15-12h20m-20 8h20m-20-12h20"/></svg><svg viewBox="0 0 30 40" id="icon_file_xls" xmlns="http://www.w3.org/2000/svg"><path d="M10.874 29.26l-1.86-2.612h.923l1.41 2.051 1.407-2.05h.913l-1.86 2.612L13.765 32h-.918l-1.5-2.168L9.835 32h-.918l1.958-2.74zM15.64 32h-.81v-7.598h.81V32zm5.17-1.46c0 .498-.185.882-.556 1.152-.371.27-.892.406-1.563.406-.71 0-1.263-.113-1.66-.337v-.752c.257.13.533.232.825.307.297.075.581.113.855.113.423 0 .749-.067.977-.2a.676.676 0 00.341-.62c0-.209-.09-.386-.273-.533-.18-.15-.53-.325-1.055-.527-.498-.186-.853-.347-1.064-.484a1.505 1.505 0 01-.469-.473 1.245 1.245 0 01-.151-.63c0-.436.177-.78.532-1.03.355-.254.841-.381 1.46-.381.576 0 1.14.117 1.69.351l-.289.66c-.537-.222-1.024-.332-1.46-.332-.384 0-.674.06-.869.18-.195.12-.293.287-.293.498a.62.62 0 00.107.366c.075.101.194.197.357.288.163.092.475.223.938.396.634.231 1.062.464 1.284.698.224.235.337.53.337.884z"/><path d="M29 1v38H1V8.414L8.414 1H29zM5 18.5h20m-20-4h20m-20-4h20"/></svg><svg viewBox="0 0 30 40" id="icon_file_zip" xmlns="http://www.w3.org/2000/svg"><path d="M12.612 32H8.73v-.552l2.92-4.17H8.911v-.63h3.628v.63L9.66 31.37h2.953V32zm2.066 0h-.81v-5.352h.81V32zm-.88-6.802c0-.185.046-.32.137-.405a.473.473 0 01.342-.132c.13 0 .243.044.337.132.095.088.142.223.142.405 0 .183-.047.32-.142.41a.478.478 0 01-.337.132.473.473 0 01-.341-.132c-.092-.09-.137-.227-.137-.41zm5.089 6.9a2.37 2.37 0 01-.957-.19 1.818 1.818 0 01-.723-.597h-.059c.04.313.059.61.059.89v2.201h-.81v-7.754h.659l.112.733h.039a1.87 1.87 0 01.728-.635c.276-.13.594-.195.952-.195.71 0 1.256.242 1.64.727.388.485.581 1.166.581 2.041 0 .88-.197 1.563-.59 2.051-.391.485-.935.728-1.631.728zm-.117-4.859c-.547 0-.943.152-1.187.454-.244.303-.37.785-.376 1.446v.18c0 .752.125 1.291.376 1.617.25.322.653.483 1.206.483.462 0 .824-.187 1.084-.562.264-.374.396-.89.396-1.547 0-.668-.132-1.179-.396-1.534-.26-.358-.628-.537-1.104-.537z"/><path d="M29 1v38H1V8.414L8.414 1H29zM5 18.5h20m-20-4h20m-20-4h20"/></svg><svg viewBox="0 0 24 24" id="icon_instagram" xmlns="http://www.w3.org/2000/svg"><path fill-rule="evenodd" clip-rule="evenodd" d="M7.5 0h9A7.5 7.5 0 0124 7.5v9a7.5 7.5 0 01-7.5 7.5h-9A7.5 7.5 0 010 16.5v-9A7.5 7.5 0 017.5 0zm9 21.75a5.256 5.256 0 005.25-5.25v-9a5.256 5.256 0 00-5.25-5.25h-9A5.256 5.256 0 002.25 7.5v9a5.256 5.256 0 005.25 5.25h9z"/><path fill-rule="evenodd" clip-rule="evenodd" d="M6 12a6 6 0 1112 0 6 6 0 01-12 0zm2.25 0A3.755 3.755 0 0012 15.75 3.755 3.755 0 0015.75 12 3.754 3.754 0 0012 8.25 3.754 3.754 0 008.25 12z"/><circle cx="18.45" cy="5.55" r=".799"/></svg><svg viewBox="0 0 32 38" id="icon_join" xmlns="http://www.w3.org/2000/svg"><path d="M19.784 2.08L12.92 13.304l.457.273 6.9-11.222 3.591 2.08-6.9 11.189.493.273 6.865-11.189 3.626 2.081-6.9 11.189.457.273 6.9-11.223L32 9.107 20.524 27.836l.492.273 4.683-7.675 3.872 2.251L20.171 38l-4.365-2.524L0 26.368 16.194 0l3.59 2.08z"/></svg><svg viewBox="0 0 24 29" id="icon_slider_arrow-next" xmlns="http://www.w3.org/2000/svg"><path d="M.377 8.302l6.02 6.014L0 20.698 8.356 29 23.11 14.283 8.733 0 .377 8.302z"/></svg><svg viewBox="0 0 24 29" id="icon_slider_arrow-prev" xmlns="http://www.w3.org/2000/svg"><path d="M22.733 8.302l-6.02 6.014 6.396 6.382L14.753 29 0 14.283 14.376 0l8.357 8.302z"/></svg><svg viewBox="0 0 9 38" id="icon_title_frame" xmlns="http://www.w3.org/2000/svg"><g clip-path="url(#uclip0_242_363)"><path d="M-5 8.749V38l14-8.749V0L-5 8.749z"/></g><defs><clipPath id="uclip0_242_363"><path d="M0 0h9v38H0z"/></clipPath></defs></svg></svg>